<?xml version="1.0" encoding="utf-8"?>
<!-- Generator: Adobe Illustrator 19.0.0, SVG Export Plug-In . SVG Version: 6.00 Build 0)  -->
<svg version="1.1"
	 id="Layer_1" xmlns:inkscape="http://www.inkscape.org/namespaces/inkscape" xmlns:rdf="http://www.w3.org/1999/02/22-rdf-syntax-ns#" xmlns:dc="http://purl.org/dc/elements/1.1/" xmlns:sodipodi="http://sodipodi.sourceforge.net/DTD/sodipodi-0.dtd" xmlns:ns1="http://sozi.baierouge.fr" xmlns:cc="http://web.resource.org/cc/"
	 xmlns="http://www.w3.org/2000/svg" xmlns:xlink="http://www.w3.org/1999/xlink" x="0px" y="0px" viewBox="-255 76 90 63"
	 style="enable-background:new -255 76 90 63;" xml:space="preserve">
<g>
	<polygon points="-176.2,132.8 -173.6,130.2 -171,132.8 -171,107.7 -176.2,110 	"/>
	<path d="M-166.1,97.2l-41.3-20.7c-1.4-0.7-3.7-0.7-5.1,0l-41.3,20.7c-1.4,0.7-1.5,1.9-0.1,2.7l38.5,22.7l0,0l-25.6-11.4v7.5
		c0,1.6,1.1,3.5,2.5,4.3l26.1,15.4c1.4,0.8,3.6,0.8,5,0l26.1-15.4c1.4-0.8,2.5-2.8,2.5-4.3v-7.5l-25.1,11.1L-166,100
		C-164.6,99.2-164.7,97.9-166.1,97.2z"/>
</g>
</svg>
